<mxfile host="app.diagrams.net" modified="2022-05-19T07:41:14.513Z" agent="5.0 (Windows NT 10.0; Win64; x64) AppleWebKit/537.36 (KHTML, like Gecko) Chrome/101.0.4951.54 Safari/537.36 Edg/101.0.1210.39" etag="7s4iJuo_RyUQMuuogqC4" version="18.0.6" type="github">
  <diagram id="R2lEEEUBdFMjLlhIrx00" name="Page-1">
    <mxGraphModel dx="930" dy="745" grid="1" gridSize="10" guides="1" tooltips="1" connect="1" arrows="1" fold="1" page="1" pageScale="1" pageWidth="1100" pageHeight="850" background="none" math="0" shadow="0" extFonts="Permanent Marker^https://fonts.googleapis.com/css?family=Permanent+Marker">
      <root>
        <mxCell id="0" />
        <mxCell id="1" parent="0" />
        <mxCell id="w1yhfIeQpA_DrEaMMZUI-81" value="accounts_user_followers" style="shape=table;startSize=30;container=1;collapsible=1;childLayout=tableLayout;fixedRows=1;rowLines=0;fontStyle=1;align=center;resizeLast=1;fillColor=#ffe6cc;strokeColor=#d79b00;rounded=0;strokeWidth=2;swimlaneFillColor=default;" vertex="1" parent="1">
          <mxGeometry x="80" y="180" width="200" height="120" as="geometry" />
        </mxCell>
        <mxCell id="w1yhfIeQpA_DrEaMMZUI-82" value="" style="shape=tableRow;horizontal=0;startSize=0;swimlaneHead=0;swimlaneBody=0;fillColor=none;collapsible=0;dropTarget=0;points=[[0,0.5],[1,0.5]];portConstraint=eastwest;top=0;left=0;right=0;bottom=1;strokeColor=#788AA3;fontColor=#46495D;rounded=0;" vertex="1" parent="w1yhfIeQpA_DrEaMMZUI-81">
          <mxGeometry y="30" width="200" height="30" as="geometry" />
        </mxCell>
        <mxCell id="w1yhfIeQpA_DrEaMMZUI-83" value="id" style="shape=partialRectangle;connectable=0;fillColor=none;top=0;left=0;bottom=0;right=0;fontStyle=1;overflow=hidden;strokeColor=#788AA3;fontColor=#46495D;rounded=0;" vertex="1" parent="w1yhfIeQpA_DrEaMMZUI-82">
          <mxGeometry width="100" height="30" as="geometry">
            <mxRectangle width="100" height="30" as="alternateBounds" />
          </mxGeometry>
        </mxCell>
        <mxCell id="w1yhfIeQpA_DrEaMMZUI-84" value="integer" style="shape=partialRectangle;connectable=0;fillColor=none;top=0;left=0;bottom=0;right=0;align=left;spacingLeft=6;fontStyle=5;overflow=hidden;strokeColor=#788AA3;fontColor=#46495D;rounded=0;" vertex="1" parent="w1yhfIeQpA_DrEaMMZUI-82">
          <mxGeometry x="100" width="100" height="30" as="geometry">
            <mxRectangle width="100" height="30" as="alternateBounds" />
          </mxGeometry>
        </mxCell>
        <mxCell id="w1yhfIeQpA_DrEaMMZUI-85" value="" style="shape=tableRow;horizontal=0;startSize=0;swimlaneHead=0;swimlaneBody=0;fillColor=none;collapsible=0;dropTarget=0;points=[[0,0.5],[1,0.5]];portConstraint=eastwest;top=0;left=0;right=0;bottom=0;strokeColor=#788AA3;fontColor=#46495D;rounded=0;" vertex="1" parent="w1yhfIeQpA_DrEaMMZUI-81">
          <mxGeometry y="60" width="200" height="30" as="geometry" />
        </mxCell>
        <mxCell id="w1yhfIeQpA_DrEaMMZUI-86" value="from_user_id" style="shape=partialRectangle;connectable=0;fillColor=none;top=0;left=0;bottom=0;right=0;editable=1;overflow=hidden;strokeColor=#788AA3;fontColor=#46495D;rounded=0;" vertex="1" parent="w1yhfIeQpA_DrEaMMZUI-85">
          <mxGeometry width="100" height="30" as="geometry">
            <mxRectangle width="100" height="30" as="alternateBounds" />
          </mxGeometry>
        </mxCell>
        <mxCell id="w1yhfIeQpA_DrEaMMZUI-87" value="integer" style="shape=partialRectangle;connectable=0;fillColor=none;top=0;left=0;bottom=0;right=0;align=left;spacingLeft=6;overflow=hidden;strokeColor=#788AA3;fontColor=#46495D;rounded=0;" vertex="1" parent="w1yhfIeQpA_DrEaMMZUI-85">
          <mxGeometry x="100" width="100" height="30" as="geometry">
            <mxRectangle width="100" height="30" as="alternateBounds" />
          </mxGeometry>
        </mxCell>
        <mxCell id="w1yhfIeQpA_DrEaMMZUI-88" value="" style="shape=tableRow;horizontal=0;startSize=0;swimlaneHead=0;swimlaneBody=0;fillColor=none;collapsible=0;dropTarget=0;points=[[0,0.5],[1,0.5]];portConstraint=eastwest;top=0;left=0;right=0;bottom=0;strokeColor=#788AA3;fontColor=#46495D;rounded=0;" vertex="1" parent="w1yhfIeQpA_DrEaMMZUI-81">
          <mxGeometry y="90" width="200" height="30" as="geometry" />
        </mxCell>
        <mxCell id="w1yhfIeQpA_DrEaMMZUI-89" value="to_user_id" style="shape=partialRectangle;connectable=0;fillColor=none;top=0;left=0;bottom=0;right=0;editable=1;overflow=hidden;strokeColor=#788AA3;fontColor=#46495D;rounded=0;" vertex="1" parent="w1yhfIeQpA_DrEaMMZUI-88">
          <mxGeometry width="100" height="30" as="geometry">
            <mxRectangle width="100" height="30" as="alternateBounds" />
          </mxGeometry>
        </mxCell>
        <mxCell id="w1yhfIeQpA_DrEaMMZUI-90" value="integer" style="shape=partialRectangle;connectable=0;fillColor=none;top=0;left=0;bottom=0;right=0;align=left;spacingLeft=6;overflow=hidden;strokeColor=#788AA3;fontColor=#46495D;rounded=0;" vertex="1" parent="w1yhfIeQpA_DrEaMMZUI-88">
          <mxGeometry x="100" width="100" height="30" as="geometry">
            <mxRectangle width="100" height="30" as="alternateBounds" />
          </mxGeometry>
        </mxCell>
        <mxCell id="w1yhfIeQpA_DrEaMMZUI-100" value="community_review" style="shape=table;startSize=30;container=1;collapsible=1;childLayout=tableLayout;fixedRows=1;rowLines=0;fontStyle=1;align=center;resizeLast=1;rounded=0;strokeColor=#6c8ebf;fillColor=#dae8fc;strokeWidth=2;swimlaneFillColor=default;" vertex="1" parent="1">
          <mxGeometry x="380" y="140" width="180" height="270" as="geometry" />
        </mxCell>
        <mxCell id="w1yhfIeQpA_DrEaMMZUI-101" value="" style="shape=tableRow;horizontal=0;startSize=0;swimlaneHead=0;swimlaneBody=0;fillColor=none;collapsible=0;dropTarget=0;points=[[0,0.5],[1,0.5]];portConstraint=eastwest;top=0;left=0;right=0;bottom=1;rounded=0;fontColor=#46495D;strokeColor=#788AA3;" vertex="1" parent="w1yhfIeQpA_DrEaMMZUI-100">
          <mxGeometry y="30" width="180" height="30" as="geometry" />
        </mxCell>
        <mxCell id="w1yhfIeQpA_DrEaMMZUI-102" value="id" style="shape=partialRectangle;connectable=0;fillColor=none;top=0;left=0;bottom=0;right=0;fontStyle=1;overflow=hidden;rounded=0;fontColor=#46495D;strokeColor=#788AA3;" vertex="1" parent="w1yhfIeQpA_DrEaMMZUI-101">
          <mxGeometry width="89" height="30" as="geometry">
            <mxRectangle width="89" height="30" as="alternateBounds" />
          </mxGeometry>
        </mxCell>
        <mxCell id="w1yhfIeQpA_DrEaMMZUI-103" value="integer" style="shape=partialRectangle;connectable=0;fillColor=none;top=0;left=0;bottom=0;right=0;align=left;spacingLeft=6;fontStyle=5;overflow=hidden;rounded=0;fontColor=#46495D;strokeColor=#788AA3;" vertex="1" parent="w1yhfIeQpA_DrEaMMZUI-101">
          <mxGeometry x="89" width="91" height="30" as="geometry">
            <mxRectangle width="91" height="30" as="alternateBounds" />
          </mxGeometry>
        </mxCell>
        <mxCell id="w1yhfIeQpA_DrEaMMZUI-104" value="" style="shape=tableRow;horizontal=0;startSize=0;swimlaneHead=0;swimlaneBody=0;fillColor=none;collapsible=0;dropTarget=0;points=[[0,0.5],[1,0.5]];portConstraint=eastwest;top=0;left=0;right=0;bottom=0;rounded=0;fontColor=#46495D;strokeColor=#788AA3;" vertex="1" parent="w1yhfIeQpA_DrEaMMZUI-100">
          <mxGeometry y="60" width="180" height="30" as="geometry" />
        </mxCell>
        <mxCell id="w1yhfIeQpA_DrEaMMZUI-105" value="title" style="shape=partialRectangle;connectable=0;fillColor=none;top=0;left=0;bottom=0;right=0;editable=1;overflow=hidden;rounded=0;fontColor=#46495D;strokeColor=#788AA3;" vertex="1" parent="w1yhfIeQpA_DrEaMMZUI-104">
          <mxGeometry width="89" height="30" as="geometry">
            <mxRectangle width="89" height="30" as="alternateBounds" />
          </mxGeometry>
        </mxCell>
        <mxCell id="w1yhfIeQpA_DrEaMMZUI-106" value="varchar(100)" style="shape=partialRectangle;connectable=0;fillColor=none;top=0;left=0;bottom=0;right=0;align=left;spacingLeft=6;overflow=hidden;rounded=0;fontColor=#46495D;strokeColor=#788AA3;" vertex="1" parent="w1yhfIeQpA_DrEaMMZUI-104">
          <mxGeometry x="89" width="91" height="30" as="geometry">
            <mxRectangle width="91" height="30" as="alternateBounds" />
          </mxGeometry>
        </mxCell>
        <mxCell id="w1yhfIeQpA_DrEaMMZUI-107" value="" style="shape=tableRow;horizontal=0;startSize=0;swimlaneHead=0;swimlaneBody=0;fillColor=none;collapsible=0;dropTarget=0;points=[[0,0.5],[1,0.5]];portConstraint=eastwest;top=0;left=0;right=0;bottom=0;rounded=0;fontColor=#46495D;strokeColor=#788AA3;" vertex="1" parent="w1yhfIeQpA_DrEaMMZUI-100">
          <mxGeometry y="90" width="180" height="30" as="geometry" />
        </mxCell>
        <mxCell id="w1yhfIeQpA_DrEaMMZUI-108" value="movie_title" style="shape=partialRectangle;connectable=0;fillColor=none;top=0;left=0;bottom=0;right=0;editable=1;overflow=hidden;rounded=0;fontColor=#46495D;strokeColor=#788AA3;" vertex="1" parent="w1yhfIeQpA_DrEaMMZUI-107">
          <mxGeometry width="89" height="30" as="geometry">
            <mxRectangle width="89" height="30" as="alternateBounds" />
          </mxGeometry>
        </mxCell>
        <mxCell id="w1yhfIeQpA_DrEaMMZUI-109" value="varchar(50)" style="shape=partialRectangle;connectable=0;fillColor=none;top=0;left=0;bottom=0;right=0;align=left;spacingLeft=6;overflow=hidden;rounded=0;fontColor=#46495D;strokeColor=#788AA3;" vertex="1" parent="w1yhfIeQpA_DrEaMMZUI-107">
          <mxGeometry x="89" width="91" height="30" as="geometry">
            <mxRectangle width="91" height="30" as="alternateBounds" />
          </mxGeometry>
        </mxCell>
        <mxCell id="w1yhfIeQpA_DrEaMMZUI-110" value="" style="shape=tableRow;horizontal=0;startSize=0;swimlaneHead=0;swimlaneBody=0;fillColor=none;collapsible=0;dropTarget=0;points=[[0,0.5],[1,0.5]];portConstraint=eastwest;top=0;left=0;right=0;bottom=0;rounded=0;fontColor=#46495D;strokeColor=#788AA3;" vertex="1" parent="w1yhfIeQpA_DrEaMMZUI-100">
          <mxGeometry y="120" width="180" height="30" as="geometry" />
        </mxCell>
        <mxCell id="w1yhfIeQpA_DrEaMMZUI-111" value="rank" style="shape=partialRectangle;connectable=0;fillColor=none;top=0;left=0;bottom=0;right=0;editable=1;overflow=hidden;rounded=0;fontColor=#46495D;strokeColor=#788AA3;" vertex="1" parent="w1yhfIeQpA_DrEaMMZUI-110">
          <mxGeometry width="89" height="30" as="geometry">
            <mxRectangle width="89" height="30" as="alternateBounds" />
          </mxGeometry>
        </mxCell>
        <mxCell id="w1yhfIeQpA_DrEaMMZUI-112" value="integer" style="shape=partialRectangle;connectable=0;fillColor=none;top=0;left=0;bottom=0;right=0;align=left;spacingLeft=6;overflow=hidden;rounded=0;fontColor=#46495D;strokeColor=#788AA3;" vertex="1" parent="w1yhfIeQpA_DrEaMMZUI-110">
          <mxGeometry x="89" width="91" height="30" as="geometry">
            <mxRectangle width="91" height="30" as="alternateBounds" />
          </mxGeometry>
        </mxCell>
        <mxCell id="w1yhfIeQpA_DrEaMMZUI-128" style="shape=tableRow;horizontal=0;startSize=0;swimlaneHead=0;swimlaneBody=0;fillColor=none;collapsible=0;dropTarget=0;points=[[0,0.5],[1,0.5]];portConstraint=eastwest;top=0;left=0;right=0;bottom=0;rounded=0;fontColor=#46495D;strokeColor=#788AA3;" vertex="1" parent="w1yhfIeQpA_DrEaMMZUI-100">
          <mxGeometry y="150" width="180" height="30" as="geometry" />
        </mxCell>
        <mxCell id="w1yhfIeQpA_DrEaMMZUI-129" value="content" style="shape=partialRectangle;connectable=0;fillColor=none;top=0;left=0;bottom=0;right=0;editable=1;overflow=hidden;rounded=0;fontColor=#46495D;strokeColor=#788AA3;" vertex="1" parent="w1yhfIeQpA_DrEaMMZUI-128">
          <mxGeometry width="89" height="30" as="geometry">
            <mxRectangle width="89" height="30" as="alternateBounds" />
          </mxGeometry>
        </mxCell>
        <mxCell id="w1yhfIeQpA_DrEaMMZUI-130" value="text" style="shape=partialRectangle;connectable=0;fillColor=none;top=0;left=0;bottom=0;right=0;align=left;spacingLeft=6;overflow=hidden;rounded=0;fontColor=#46495D;strokeColor=#788AA3;" vertex="1" parent="w1yhfIeQpA_DrEaMMZUI-128">
          <mxGeometry x="89" width="91" height="30" as="geometry">
            <mxRectangle width="91" height="30" as="alternateBounds" />
          </mxGeometry>
        </mxCell>
        <mxCell id="w1yhfIeQpA_DrEaMMZUI-125" style="shape=tableRow;horizontal=0;startSize=0;swimlaneHead=0;swimlaneBody=0;fillColor=none;collapsible=0;dropTarget=0;points=[[0,0.5],[1,0.5]];portConstraint=eastwest;top=0;left=0;right=0;bottom=0;rounded=0;fontColor=#46495D;strokeColor=#788AA3;" vertex="1" parent="w1yhfIeQpA_DrEaMMZUI-100">
          <mxGeometry y="180" width="180" height="30" as="geometry" />
        </mxCell>
        <mxCell id="w1yhfIeQpA_DrEaMMZUI-126" value="created_at" style="shape=partialRectangle;connectable=0;fillColor=none;top=0;left=0;bottom=0;right=0;editable=1;overflow=hidden;rounded=0;fontColor=#46495D;strokeColor=#788AA3;" vertex="1" parent="w1yhfIeQpA_DrEaMMZUI-125">
          <mxGeometry width="89" height="30" as="geometry">
            <mxRectangle width="89" height="30" as="alternateBounds" />
          </mxGeometry>
        </mxCell>
        <mxCell id="w1yhfIeQpA_DrEaMMZUI-127" value="datetime" style="shape=partialRectangle;connectable=0;fillColor=none;top=0;left=0;bottom=0;right=0;align=left;spacingLeft=6;overflow=hidden;rounded=0;fontColor=#46495D;strokeColor=#788AA3;" vertex="1" parent="w1yhfIeQpA_DrEaMMZUI-125">
          <mxGeometry x="89" width="91" height="30" as="geometry">
            <mxRectangle width="91" height="30" as="alternateBounds" />
          </mxGeometry>
        </mxCell>
        <mxCell id="w1yhfIeQpA_DrEaMMZUI-122" style="shape=tableRow;horizontal=0;startSize=0;swimlaneHead=0;swimlaneBody=0;fillColor=none;collapsible=0;dropTarget=0;points=[[0,0.5],[1,0.5]];portConstraint=eastwest;top=0;left=0;right=0;bottom=0;rounded=0;fontColor=#46495D;strokeColor=#788AA3;" vertex="1" parent="w1yhfIeQpA_DrEaMMZUI-100">
          <mxGeometry y="210" width="180" height="30" as="geometry" />
        </mxCell>
        <mxCell id="w1yhfIeQpA_DrEaMMZUI-123" value="updated_at" style="shape=partialRectangle;connectable=0;fillColor=none;top=0;left=0;bottom=0;right=0;editable=1;overflow=hidden;rounded=0;fontColor=#46495D;strokeColor=#788AA3;" vertex="1" parent="w1yhfIeQpA_DrEaMMZUI-122">
          <mxGeometry width="89" height="30" as="geometry">
            <mxRectangle width="89" height="30" as="alternateBounds" />
          </mxGeometry>
        </mxCell>
        <mxCell id="w1yhfIeQpA_DrEaMMZUI-124" value="datetime" style="shape=partialRectangle;connectable=0;fillColor=none;top=0;left=0;bottom=0;right=0;align=left;spacingLeft=6;overflow=hidden;rounded=0;fontColor=#46495D;strokeColor=#788AA3;" vertex="1" parent="w1yhfIeQpA_DrEaMMZUI-122">
          <mxGeometry x="89" width="91" height="30" as="geometry">
            <mxRectangle width="91" height="30" as="alternateBounds" />
          </mxGeometry>
        </mxCell>
        <mxCell id="w1yhfIeQpA_DrEaMMZUI-119" style="shape=tableRow;horizontal=0;startSize=0;swimlaneHead=0;swimlaneBody=0;fillColor=none;collapsible=0;dropTarget=0;points=[[0,0.5],[1,0.5]];portConstraint=eastwest;top=0;left=0;right=0;bottom=0;rounded=0;fontColor=#46495D;strokeColor=#788AA3;" vertex="1" parent="w1yhfIeQpA_DrEaMMZUI-100">
          <mxGeometry y="240" width="180" height="30" as="geometry" />
        </mxCell>
        <mxCell id="w1yhfIeQpA_DrEaMMZUI-120" value="user_id" style="shape=partialRectangle;connectable=0;fillColor=none;top=0;left=0;bottom=0;right=0;editable=1;overflow=hidden;rounded=0;fontColor=#46495D;strokeColor=#788AA3;" vertex="1" parent="w1yhfIeQpA_DrEaMMZUI-119">
          <mxGeometry width="89" height="30" as="geometry">
            <mxRectangle width="89" height="30" as="alternateBounds" />
          </mxGeometry>
        </mxCell>
        <mxCell id="w1yhfIeQpA_DrEaMMZUI-121" value="integer" style="shape=partialRectangle;connectable=0;fillColor=none;top=0;left=0;bottom=0;right=0;align=left;spacingLeft=6;overflow=hidden;rounded=0;fontColor=#46495D;strokeColor=#788AA3;" vertex="1" parent="w1yhfIeQpA_DrEaMMZUI-119">
          <mxGeometry x="89" width="91" height="30" as="geometry">
            <mxRectangle width="91" height="30" as="alternateBounds" />
          </mxGeometry>
        </mxCell>
        <mxCell id="w1yhfIeQpA_DrEaMMZUI-131" value="accounts_user" style="shape=table;startSize=30;container=1;collapsible=1;childLayout=tableLayout;fixedRows=1;rowLines=0;fontStyle=1;align=center;resizeLast=1;rounded=0;strokeColor=#d79b00;fillColor=#ffe6cc;strokeWidth=2;swimlaneFillColor=default;" vertex="1" parent="1">
          <mxGeometry x="80" y="380" width="200" height="360" as="geometry" />
        </mxCell>
        <mxCell id="w1yhfIeQpA_DrEaMMZUI-132" value="" style="shape=tableRow;horizontal=0;startSize=0;swimlaneHead=0;swimlaneBody=0;fillColor=none;collapsible=0;dropTarget=0;points=[[0,0.5],[1,0.5]];portConstraint=eastwest;top=0;left=0;right=0;bottom=1;rounded=0;fontColor=#46495D;strokeColor=#788AA3;" vertex="1" parent="w1yhfIeQpA_DrEaMMZUI-131">
          <mxGeometry y="30" width="200" height="30" as="geometry" />
        </mxCell>
        <mxCell id="w1yhfIeQpA_DrEaMMZUI-133" value="id" style="shape=partialRectangle;connectable=0;fillColor=none;top=0;left=0;bottom=0;right=0;fontStyle=1;overflow=hidden;rounded=0;fontColor=#46495D;strokeColor=#788AA3;" vertex="1" parent="w1yhfIeQpA_DrEaMMZUI-132">
          <mxGeometry width="100" height="30" as="geometry">
            <mxRectangle width="100" height="30" as="alternateBounds" />
          </mxGeometry>
        </mxCell>
        <mxCell id="w1yhfIeQpA_DrEaMMZUI-134" value="integer" style="shape=partialRectangle;connectable=0;fillColor=none;top=0;left=0;bottom=0;right=0;align=left;spacingLeft=6;fontStyle=5;overflow=hidden;rounded=0;fontColor=#46495D;strokeColor=#788AA3;" vertex="1" parent="w1yhfIeQpA_DrEaMMZUI-132">
          <mxGeometry x="100" width="100" height="30" as="geometry">
            <mxRectangle width="100" height="30" as="alternateBounds" />
          </mxGeometry>
        </mxCell>
        <mxCell id="w1yhfIeQpA_DrEaMMZUI-135" value="" style="shape=tableRow;horizontal=0;startSize=0;swimlaneHead=0;swimlaneBody=0;fillColor=none;collapsible=0;dropTarget=0;points=[[0,0.5],[1,0.5]];portConstraint=eastwest;top=0;left=0;right=0;bottom=0;rounded=0;fontColor=#46495D;strokeColor=#788AA3;" vertex="1" parent="w1yhfIeQpA_DrEaMMZUI-131">
          <mxGeometry y="60" width="200" height="30" as="geometry" />
        </mxCell>
        <mxCell id="w1yhfIeQpA_DrEaMMZUI-136" value="password" style="shape=partialRectangle;connectable=0;fillColor=none;top=0;left=0;bottom=0;right=0;editable=1;overflow=hidden;rounded=0;fontColor=#46495D;strokeColor=#788AA3;" vertex="1" parent="w1yhfIeQpA_DrEaMMZUI-135">
          <mxGeometry width="100" height="30" as="geometry">
            <mxRectangle width="100" height="30" as="alternateBounds" />
          </mxGeometry>
        </mxCell>
        <mxCell id="w1yhfIeQpA_DrEaMMZUI-137" value="varchar(128)" style="shape=partialRectangle;connectable=0;fillColor=none;top=0;left=0;bottom=0;right=0;align=left;spacingLeft=6;overflow=hidden;rounded=0;fontColor=#46495D;strokeColor=#788AA3;" vertex="1" parent="w1yhfIeQpA_DrEaMMZUI-135">
          <mxGeometry x="100" width="100" height="30" as="geometry">
            <mxRectangle width="100" height="30" as="alternateBounds" />
          </mxGeometry>
        </mxCell>
        <mxCell id="w1yhfIeQpA_DrEaMMZUI-138" value="" style="shape=tableRow;horizontal=0;startSize=0;swimlaneHead=0;swimlaneBody=0;fillColor=none;collapsible=0;dropTarget=0;points=[[0,0.5],[1,0.5]];portConstraint=eastwest;top=0;left=0;right=0;bottom=0;rounded=0;fontColor=#46495D;strokeColor=#788AA3;" vertex="1" parent="w1yhfIeQpA_DrEaMMZUI-131">
          <mxGeometry y="90" width="200" height="30" as="geometry" />
        </mxCell>
        <mxCell id="w1yhfIeQpA_DrEaMMZUI-139" value="username" style="shape=partialRectangle;connectable=0;fillColor=none;top=0;left=0;bottom=0;right=0;editable=1;overflow=hidden;rounded=0;fontColor=#46495D;strokeColor=#788AA3;" vertex="1" parent="w1yhfIeQpA_DrEaMMZUI-138">
          <mxGeometry width="100" height="30" as="geometry">
            <mxRectangle width="100" height="30" as="alternateBounds" />
          </mxGeometry>
        </mxCell>
        <mxCell id="w1yhfIeQpA_DrEaMMZUI-140" value="varchar(150)" style="shape=partialRectangle;connectable=0;fillColor=none;top=0;left=0;bottom=0;right=0;align=left;spacingLeft=6;overflow=hidden;rounded=0;fontColor=#46495D;strokeColor=#788AA3;" vertex="1" parent="w1yhfIeQpA_DrEaMMZUI-138">
          <mxGeometry x="100" width="100" height="30" as="geometry">
            <mxRectangle width="100" height="30" as="alternateBounds" />
          </mxGeometry>
        </mxCell>
        <mxCell id="w1yhfIeQpA_DrEaMMZUI-141" value="" style="shape=tableRow;horizontal=0;startSize=0;swimlaneHead=0;swimlaneBody=0;fillColor=none;collapsible=0;dropTarget=0;points=[[0,0.5],[1,0.5]];portConstraint=eastwest;top=0;left=0;right=0;bottom=0;rounded=0;fontColor=#46495D;strokeColor=#788AA3;" vertex="1" parent="w1yhfIeQpA_DrEaMMZUI-131">
          <mxGeometry y="120" width="200" height="30" as="geometry" />
        </mxCell>
        <mxCell id="w1yhfIeQpA_DrEaMMZUI-142" value="email" style="shape=partialRectangle;connectable=0;fillColor=none;top=0;left=0;bottom=0;right=0;editable=1;overflow=hidden;rounded=0;fontColor=#46495D;strokeColor=#788AA3;" vertex="1" parent="w1yhfIeQpA_DrEaMMZUI-141">
          <mxGeometry width="100" height="30" as="geometry">
            <mxRectangle width="100" height="30" as="alternateBounds" />
          </mxGeometry>
        </mxCell>
        <mxCell id="w1yhfIeQpA_DrEaMMZUI-143" value="varchar(254)" style="shape=partialRectangle;connectable=0;fillColor=none;top=0;left=0;bottom=0;right=0;align=left;spacingLeft=6;overflow=hidden;rounded=0;fontColor=#46495D;strokeColor=#788AA3;" vertex="1" parent="w1yhfIeQpA_DrEaMMZUI-141">
          <mxGeometry x="100" width="100" height="30" as="geometry">
            <mxRectangle width="100" height="30" as="alternateBounds" />
          </mxGeometry>
        </mxCell>
        <mxCell id="w1yhfIeQpA_DrEaMMZUI-146" style="shape=tableRow;horizontal=0;startSize=0;swimlaneHead=0;swimlaneBody=0;fillColor=none;collapsible=0;dropTarget=0;points=[[0,0.5],[1,0.5]];portConstraint=eastwest;top=0;left=0;right=0;bottom=0;rounded=0;fontColor=#46495D;strokeColor=#788AA3;" vertex="1" parent="w1yhfIeQpA_DrEaMMZUI-131">
          <mxGeometry y="150" width="200" height="30" as="geometry" />
        </mxCell>
        <mxCell id="w1yhfIeQpA_DrEaMMZUI-147" value="is_superuser" style="shape=partialRectangle;connectable=0;fillColor=none;top=0;left=0;bottom=0;right=0;editable=1;overflow=hidden;rounded=0;fontColor=#46495D;strokeColor=#788AA3;" vertex="1" parent="w1yhfIeQpA_DrEaMMZUI-146">
          <mxGeometry width="100" height="30" as="geometry">
            <mxRectangle width="100" height="30" as="alternateBounds" />
          </mxGeometry>
        </mxCell>
        <mxCell id="w1yhfIeQpA_DrEaMMZUI-148" value="bool" style="shape=partialRectangle;connectable=0;fillColor=none;top=0;left=0;bottom=0;right=0;align=left;spacingLeft=6;overflow=hidden;rounded=0;fontColor=#46495D;strokeColor=#788AA3;" vertex="1" parent="w1yhfIeQpA_DrEaMMZUI-146">
          <mxGeometry x="100" width="100" height="30" as="geometry">
            <mxRectangle width="100" height="30" as="alternateBounds" />
          </mxGeometry>
        </mxCell>
        <mxCell id="w1yhfIeQpA_DrEaMMZUI-149" style="shape=tableRow;horizontal=0;startSize=0;swimlaneHead=0;swimlaneBody=0;fillColor=none;collapsible=0;dropTarget=0;points=[[0,0.5],[1,0.5]];portConstraint=eastwest;top=0;left=0;right=0;bottom=0;rounded=0;fontColor=#46495D;strokeColor=#788AA3;" vertex="1" parent="w1yhfIeQpA_DrEaMMZUI-131">
          <mxGeometry y="180" width="200" height="30" as="geometry" />
        </mxCell>
        <mxCell id="w1yhfIeQpA_DrEaMMZUI-150" value="is_staff" style="shape=partialRectangle;connectable=0;fillColor=none;top=0;left=0;bottom=0;right=0;editable=1;overflow=hidden;rounded=0;fontColor=#46495D;strokeColor=#788AA3;" vertex="1" parent="w1yhfIeQpA_DrEaMMZUI-149">
          <mxGeometry width="100" height="30" as="geometry">
            <mxRectangle width="100" height="30" as="alternateBounds" />
          </mxGeometry>
        </mxCell>
        <mxCell id="w1yhfIeQpA_DrEaMMZUI-151" value="bool" style="shape=partialRectangle;connectable=0;fillColor=none;top=0;left=0;bottom=0;right=0;align=left;spacingLeft=6;overflow=hidden;rounded=0;fontColor=#46495D;strokeColor=#788AA3;" vertex="1" parent="w1yhfIeQpA_DrEaMMZUI-149">
          <mxGeometry x="100" width="100" height="30" as="geometry">
            <mxRectangle width="100" height="30" as="alternateBounds" />
          </mxGeometry>
        </mxCell>
        <mxCell id="w1yhfIeQpA_DrEaMMZUI-152" style="shape=tableRow;horizontal=0;startSize=0;swimlaneHead=0;swimlaneBody=0;fillColor=none;collapsible=0;dropTarget=0;points=[[0,0.5],[1,0.5]];portConstraint=eastwest;top=0;left=0;right=0;bottom=0;rounded=0;fontColor=#46495D;strokeColor=#788AA3;" vertex="1" parent="w1yhfIeQpA_DrEaMMZUI-131">
          <mxGeometry y="210" width="200" height="30" as="geometry" />
        </mxCell>
        <mxCell id="w1yhfIeQpA_DrEaMMZUI-153" value="is_active" style="shape=partialRectangle;connectable=0;fillColor=none;top=0;left=0;bottom=0;right=0;editable=1;overflow=hidden;rounded=0;fontColor=#46495D;strokeColor=#788AA3;" vertex="1" parent="w1yhfIeQpA_DrEaMMZUI-152">
          <mxGeometry width="100" height="30" as="geometry">
            <mxRectangle width="100" height="30" as="alternateBounds" />
          </mxGeometry>
        </mxCell>
        <mxCell id="w1yhfIeQpA_DrEaMMZUI-154" value="bool" style="shape=partialRectangle;connectable=0;fillColor=none;top=0;left=0;bottom=0;right=0;align=left;spacingLeft=6;overflow=hidden;rounded=0;fontColor=#46495D;strokeColor=#788AA3;" vertex="1" parent="w1yhfIeQpA_DrEaMMZUI-152">
          <mxGeometry x="100" width="100" height="30" as="geometry">
            <mxRectangle width="100" height="30" as="alternateBounds" />
          </mxGeometry>
        </mxCell>
        <mxCell id="w1yhfIeQpA_DrEaMMZUI-155" style="shape=tableRow;horizontal=0;startSize=0;swimlaneHead=0;swimlaneBody=0;fillColor=none;collapsible=0;dropTarget=0;points=[[0,0.5],[1,0.5]];portConstraint=eastwest;top=0;left=0;right=0;bottom=0;rounded=0;fontColor=#46495D;strokeColor=#788AA3;" vertex="1" parent="w1yhfIeQpA_DrEaMMZUI-131">
          <mxGeometry y="240" width="200" height="30" as="geometry" />
        </mxCell>
        <mxCell id="w1yhfIeQpA_DrEaMMZUI-156" value="last_name" style="shape=partialRectangle;connectable=0;fillColor=none;top=0;left=0;bottom=0;right=0;editable=1;overflow=hidden;rounded=0;fontColor=#46495D;strokeColor=#788AA3;" vertex="1" parent="w1yhfIeQpA_DrEaMMZUI-155">
          <mxGeometry width="100" height="30" as="geometry">
            <mxRectangle width="100" height="30" as="alternateBounds" />
          </mxGeometry>
        </mxCell>
        <mxCell id="w1yhfIeQpA_DrEaMMZUI-157" value="varchar(150)" style="shape=partialRectangle;connectable=0;fillColor=none;top=0;left=0;bottom=0;right=0;align=left;spacingLeft=6;overflow=hidden;rounded=0;fontColor=#46495D;strokeColor=#788AA3;" vertex="1" parent="w1yhfIeQpA_DrEaMMZUI-155">
          <mxGeometry x="100" width="100" height="30" as="geometry">
            <mxRectangle width="100" height="30" as="alternateBounds" />
          </mxGeometry>
        </mxCell>
        <mxCell id="w1yhfIeQpA_DrEaMMZUI-158" style="shape=tableRow;horizontal=0;startSize=0;swimlaneHead=0;swimlaneBody=0;fillColor=none;collapsible=0;dropTarget=0;points=[[0,0.5],[1,0.5]];portConstraint=eastwest;top=0;left=0;right=0;bottom=0;rounded=0;fontColor=#46495D;strokeColor=#788AA3;" vertex="1" parent="w1yhfIeQpA_DrEaMMZUI-131">
          <mxGeometry y="270" width="200" height="30" as="geometry" />
        </mxCell>
        <mxCell id="w1yhfIeQpA_DrEaMMZUI-159" value="first_name" style="shape=partialRectangle;connectable=0;fillColor=none;top=0;left=0;bottom=0;right=0;editable=1;overflow=hidden;rounded=0;fontColor=#46495D;strokeColor=#788AA3;" vertex="1" parent="w1yhfIeQpA_DrEaMMZUI-158">
          <mxGeometry width="100" height="30" as="geometry">
            <mxRectangle width="100" height="30" as="alternateBounds" />
          </mxGeometry>
        </mxCell>
        <mxCell id="w1yhfIeQpA_DrEaMMZUI-160" value="varchar(150)" style="shape=partialRectangle;connectable=0;fillColor=none;top=0;left=0;bottom=0;right=0;align=left;spacingLeft=6;overflow=hidden;rounded=0;fontColor=#46495D;strokeColor=#788AA3;" vertex="1" parent="w1yhfIeQpA_DrEaMMZUI-158">
          <mxGeometry x="100" width="100" height="30" as="geometry">
            <mxRectangle width="100" height="30" as="alternateBounds" />
          </mxGeometry>
        </mxCell>
        <mxCell id="w1yhfIeQpA_DrEaMMZUI-161" style="shape=tableRow;horizontal=0;startSize=0;swimlaneHead=0;swimlaneBody=0;fillColor=none;collapsible=0;dropTarget=0;points=[[0,0.5],[1,0.5]];portConstraint=eastwest;top=0;left=0;right=0;bottom=0;rounded=0;fontColor=#46495D;strokeColor=#788AA3;" vertex="1" parent="w1yhfIeQpA_DrEaMMZUI-131">
          <mxGeometry y="300" width="200" height="30" as="geometry" />
        </mxCell>
        <mxCell id="w1yhfIeQpA_DrEaMMZUI-162" value="date_joined" style="shape=partialRectangle;connectable=0;fillColor=none;top=0;left=0;bottom=0;right=0;editable=1;overflow=hidden;rounded=0;fontColor=#46495D;strokeColor=#788AA3;" vertex="1" parent="w1yhfIeQpA_DrEaMMZUI-161">
          <mxGeometry width="100" height="30" as="geometry">
            <mxRectangle width="100" height="30" as="alternateBounds" />
          </mxGeometry>
        </mxCell>
        <mxCell id="w1yhfIeQpA_DrEaMMZUI-163" value="datetime" style="shape=partialRectangle;connectable=0;fillColor=none;top=0;left=0;bottom=0;right=0;align=left;spacingLeft=6;overflow=hidden;rounded=0;fontColor=#46495D;strokeColor=#788AA3;" vertex="1" parent="w1yhfIeQpA_DrEaMMZUI-161">
          <mxGeometry x="100" width="100" height="30" as="geometry">
            <mxRectangle width="100" height="30" as="alternateBounds" />
          </mxGeometry>
        </mxCell>
        <mxCell id="w1yhfIeQpA_DrEaMMZUI-164" style="shape=tableRow;horizontal=0;startSize=0;swimlaneHead=0;swimlaneBody=0;fillColor=none;collapsible=0;dropTarget=0;points=[[0,0.5],[1,0.5]];portConstraint=eastwest;top=0;left=0;right=0;bottom=0;rounded=0;fontColor=#46495D;strokeColor=#788AA3;" vertex="1" parent="w1yhfIeQpA_DrEaMMZUI-131">
          <mxGeometry y="330" width="200" height="30" as="geometry" />
        </mxCell>
        <mxCell id="w1yhfIeQpA_DrEaMMZUI-165" value="last_login" style="shape=partialRectangle;connectable=0;fillColor=none;top=0;left=0;bottom=0;right=0;editable=1;overflow=hidden;rounded=0;fontColor=#46495D;strokeColor=#788AA3;" vertex="1" parent="w1yhfIeQpA_DrEaMMZUI-164">
          <mxGeometry width="100" height="30" as="geometry">
            <mxRectangle width="100" height="30" as="alternateBounds" />
          </mxGeometry>
        </mxCell>
        <mxCell id="w1yhfIeQpA_DrEaMMZUI-166" value="datetime" style="shape=partialRectangle;connectable=0;fillColor=none;top=0;left=0;bottom=0;right=0;align=left;spacingLeft=6;overflow=hidden;rounded=0;fontColor=#46495D;strokeColor=#788AA3;" vertex="1" parent="w1yhfIeQpA_DrEaMMZUI-164">
          <mxGeometry x="100" width="100" height="30" as="geometry">
            <mxRectangle width="100" height="30" as="alternateBounds" />
          </mxGeometry>
        </mxCell>
        <mxCell id="w1yhfIeQpA_DrEaMMZUI-167" value="community_comment" style="shape=table;startSize=30;container=1;collapsible=1;childLayout=tableLayout;fixedRows=1;rowLines=0;fontStyle=1;align=center;resizeLast=1;rounded=0;strokeColor=#6c8ebf;fillColor=#dae8fc;strokeWidth=2;swimlaneFillColor=default;" vertex="1" parent="1">
          <mxGeometry x="380" y="470" width="180" height="160" as="geometry" />
        </mxCell>
        <mxCell id="w1yhfIeQpA_DrEaMMZUI-168" value="" style="shape=tableRow;horizontal=0;startSize=0;swimlaneHead=0;swimlaneBody=0;fillColor=none;collapsible=0;dropTarget=0;points=[[0,0.5],[1,0.5]];portConstraint=eastwest;top=0;left=0;right=0;bottom=1;rounded=0;fontColor=#46495D;strokeColor=#788AA3;" vertex="1" parent="w1yhfIeQpA_DrEaMMZUI-167">
          <mxGeometry y="30" width="180" height="30" as="geometry" />
        </mxCell>
        <mxCell id="w1yhfIeQpA_DrEaMMZUI-169" value="id" style="shape=partialRectangle;connectable=0;fillColor=none;top=0;left=0;bottom=0;right=0;fontStyle=1;overflow=hidden;rounded=0;fontColor=#46495D;strokeColor=#788AA3;" vertex="1" parent="w1yhfIeQpA_DrEaMMZUI-168">
          <mxGeometry width="90" height="30" as="geometry">
            <mxRectangle width="90" height="30" as="alternateBounds" />
          </mxGeometry>
        </mxCell>
        <mxCell id="w1yhfIeQpA_DrEaMMZUI-170" value="integer" style="shape=partialRectangle;connectable=0;fillColor=none;top=0;left=0;bottom=0;right=0;align=left;spacingLeft=6;fontStyle=5;overflow=hidden;rounded=0;fontColor=#46495D;strokeColor=#788AA3;" vertex="1" parent="w1yhfIeQpA_DrEaMMZUI-168">
          <mxGeometry x="90" width="90" height="30" as="geometry">
            <mxRectangle width="90" height="30" as="alternateBounds" />
          </mxGeometry>
        </mxCell>
        <mxCell id="w1yhfIeQpA_DrEaMMZUI-171" value="" style="shape=tableRow;horizontal=0;startSize=0;swimlaneHead=0;swimlaneBody=0;fillColor=none;collapsible=0;dropTarget=0;points=[[0,0.5],[1,0.5]];portConstraint=eastwest;top=0;left=0;right=0;bottom=0;rounded=0;fontColor=#46495D;strokeColor=#788AA3;" vertex="1" parent="w1yhfIeQpA_DrEaMMZUI-167">
          <mxGeometry y="60" width="180" height="30" as="geometry" />
        </mxCell>
        <mxCell id="w1yhfIeQpA_DrEaMMZUI-172" value="content" style="shape=partialRectangle;connectable=0;fillColor=none;top=0;left=0;bottom=0;right=0;editable=1;overflow=hidden;rounded=0;fontColor=#46495D;strokeColor=#788AA3;" vertex="1" parent="w1yhfIeQpA_DrEaMMZUI-171">
          <mxGeometry width="90" height="30" as="geometry">
            <mxRectangle width="90" height="30" as="alternateBounds" />
          </mxGeometry>
        </mxCell>
        <mxCell id="w1yhfIeQpA_DrEaMMZUI-173" value="text" style="shape=partialRectangle;connectable=0;fillColor=none;top=0;left=0;bottom=0;right=0;align=left;spacingLeft=6;overflow=hidden;rounded=0;fontColor=#46495D;strokeColor=#788AA3;" vertex="1" parent="w1yhfIeQpA_DrEaMMZUI-171">
          <mxGeometry x="90" width="90" height="30" as="geometry">
            <mxRectangle width="90" height="30" as="alternateBounds" />
          </mxGeometry>
        </mxCell>
        <mxCell id="w1yhfIeQpA_DrEaMMZUI-174" value="" style="shape=tableRow;horizontal=0;startSize=0;swimlaneHead=0;swimlaneBody=0;fillColor=none;collapsible=0;dropTarget=0;points=[[0,0.5],[1,0.5]];portConstraint=eastwest;top=0;left=0;right=0;bottom=0;rounded=0;fontColor=#46495D;strokeColor=#788AA3;" vertex="1" parent="w1yhfIeQpA_DrEaMMZUI-167">
          <mxGeometry y="90" width="180" height="30" as="geometry" />
        </mxCell>
        <mxCell id="w1yhfIeQpA_DrEaMMZUI-175" value="review_id" style="shape=partialRectangle;connectable=0;fillColor=none;top=0;left=0;bottom=0;right=0;editable=1;overflow=hidden;rounded=0;fontColor=#46495D;strokeColor=#788AA3;" vertex="1" parent="w1yhfIeQpA_DrEaMMZUI-174">
          <mxGeometry width="90" height="30" as="geometry">
            <mxRectangle width="90" height="30" as="alternateBounds" />
          </mxGeometry>
        </mxCell>
        <mxCell id="w1yhfIeQpA_DrEaMMZUI-176" value="integer" style="shape=partialRectangle;connectable=0;fillColor=none;top=0;left=0;bottom=0;right=0;align=left;spacingLeft=6;overflow=hidden;rounded=0;fontColor=#46495D;strokeColor=#788AA3;" vertex="1" parent="w1yhfIeQpA_DrEaMMZUI-174">
          <mxGeometry x="90" width="90" height="30" as="geometry">
            <mxRectangle width="90" height="30" as="alternateBounds" />
          </mxGeometry>
        </mxCell>
        <mxCell id="w1yhfIeQpA_DrEaMMZUI-177" value="" style="shape=tableRow;horizontal=0;startSize=0;swimlaneHead=0;swimlaneBody=0;fillColor=none;collapsible=0;dropTarget=0;points=[[0,0.5],[1,0.5]];portConstraint=eastwest;top=0;left=0;right=0;bottom=0;rounded=0;fontColor=#46495D;strokeColor=#788AA3;" vertex="1" parent="w1yhfIeQpA_DrEaMMZUI-167">
          <mxGeometry y="120" width="180" height="40" as="geometry" />
        </mxCell>
        <mxCell id="w1yhfIeQpA_DrEaMMZUI-178" value="user_id" style="shape=partialRectangle;connectable=0;fillColor=none;top=0;left=0;bottom=0;right=0;editable=1;overflow=hidden;rounded=0;fontColor=#46495D;strokeColor=#788AA3;" vertex="1" parent="w1yhfIeQpA_DrEaMMZUI-177">
          <mxGeometry width="90" height="40" as="geometry">
            <mxRectangle width="90" height="40" as="alternateBounds" />
          </mxGeometry>
        </mxCell>
        <mxCell id="w1yhfIeQpA_DrEaMMZUI-179" value="integer" style="shape=partialRectangle;connectable=0;fillColor=none;top=0;left=0;bottom=0;right=0;align=left;spacingLeft=6;overflow=hidden;rounded=0;fontColor=#46495D;strokeColor=#788AA3;" vertex="1" parent="w1yhfIeQpA_DrEaMMZUI-177">
          <mxGeometry x="90" width="90" height="40" as="geometry">
            <mxRectangle width="90" height="40" as="alternateBounds" />
          </mxGeometry>
        </mxCell>
        <mxCell id="w1yhfIeQpA_DrEaMMZUI-180" value="community_review_like" style="shape=table;startSize=30;container=1;collapsible=1;childLayout=tableLayout;fixedRows=1;rowLines=0;fontStyle=1;align=center;resizeLast=1;rounded=0;strokeColor=#6c8ebf;fillColor=#dae8fc;strokeWidth=2;swimlaneFillColor=default;" vertex="1" parent="1">
          <mxGeometry x="380" y="660" width="180" height="120" as="geometry" />
        </mxCell>
        <mxCell id="w1yhfIeQpA_DrEaMMZUI-181" value="" style="shape=tableRow;horizontal=0;startSize=0;swimlaneHead=0;swimlaneBody=0;fillColor=none;collapsible=0;dropTarget=0;points=[[0,0.5],[1,0.5]];portConstraint=eastwest;top=0;left=0;right=0;bottom=1;rounded=0;fontColor=#46495D;strokeColor=#788AA3;" vertex="1" parent="w1yhfIeQpA_DrEaMMZUI-180">
          <mxGeometry y="30" width="180" height="30" as="geometry" />
        </mxCell>
        <mxCell id="w1yhfIeQpA_DrEaMMZUI-182" value="id" style="shape=partialRectangle;connectable=0;fillColor=none;top=0;left=0;bottom=0;right=0;fontStyle=1;overflow=hidden;rounded=0;fontColor=#46495D;strokeColor=#788AA3;" vertex="1" parent="w1yhfIeQpA_DrEaMMZUI-181">
          <mxGeometry width="90" height="30" as="geometry">
            <mxRectangle width="90" height="30" as="alternateBounds" />
          </mxGeometry>
        </mxCell>
        <mxCell id="w1yhfIeQpA_DrEaMMZUI-183" value="integer" style="shape=partialRectangle;connectable=0;fillColor=none;top=0;left=0;bottom=0;right=0;align=left;spacingLeft=6;fontStyle=5;overflow=hidden;rounded=0;fontColor=#46495D;strokeColor=#788AA3;" vertex="1" parent="w1yhfIeQpA_DrEaMMZUI-181">
          <mxGeometry x="90" width="90" height="30" as="geometry">
            <mxRectangle width="90" height="30" as="alternateBounds" />
          </mxGeometry>
        </mxCell>
        <mxCell id="w1yhfIeQpA_DrEaMMZUI-184" value="" style="shape=tableRow;horizontal=0;startSize=0;swimlaneHead=0;swimlaneBody=0;fillColor=none;collapsible=0;dropTarget=0;points=[[0,0.5],[1,0.5]];portConstraint=eastwest;top=0;left=0;right=0;bottom=0;rounded=0;fontColor=#46495D;strokeColor=#788AA3;" vertex="1" parent="w1yhfIeQpA_DrEaMMZUI-180">
          <mxGeometry y="60" width="180" height="30" as="geometry" />
        </mxCell>
        <mxCell id="w1yhfIeQpA_DrEaMMZUI-185" value="review_id" style="shape=partialRectangle;connectable=0;fillColor=none;top=0;left=0;bottom=0;right=0;editable=1;overflow=hidden;rounded=0;fontColor=#46495D;strokeColor=#788AA3;" vertex="1" parent="w1yhfIeQpA_DrEaMMZUI-184">
          <mxGeometry width="90" height="30" as="geometry">
            <mxRectangle width="90" height="30" as="alternateBounds" />
          </mxGeometry>
        </mxCell>
        <mxCell id="w1yhfIeQpA_DrEaMMZUI-186" value="integer" style="shape=partialRectangle;connectable=0;fillColor=none;top=0;left=0;bottom=0;right=0;align=left;spacingLeft=6;overflow=hidden;rounded=0;fontColor=#46495D;strokeColor=#788AA3;" vertex="1" parent="w1yhfIeQpA_DrEaMMZUI-184">
          <mxGeometry x="90" width="90" height="30" as="geometry">
            <mxRectangle width="90" height="30" as="alternateBounds" />
          </mxGeometry>
        </mxCell>
        <mxCell id="w1yhfIeQpA_DrEaMMZUI-187" value="" style="shape=tableRow;horizontal=0;startSize=0;swimlaneHead=0;swimlaneBody=0;fillColor=none;collapsible=0;dropTarget=0;points=[[0,0.5],[1,0.5]];portConstraint=eastwest;top=0;left=0;right=0;bottom=0;rounded=0;fontColor=#46495D;strokeColor=#788AA3;" vertex="1" parent="w1yhfIeQpA_DrEaMMZUI-180">
          <mxGeometry y="90" width="180" height="30" as="geometry" />
        </mxCell>
        <mxCell id="w1yhfIeQpA_DrEaMMZUI-188" value="user_id" style="shape=partialRectangle;connectable=0;fillColor=none;top=0;left=0;bottom=0;right=0;editable=1;overflow=hidden;rounded=0;fontColor=#46495D;strokeColor=#788AA3;" vertex="1" parent="w1yhfIeQpA_DrEaMMZUI-187">
          <mxGeometry width="90" height="30" as="geometry">
            <mxRectangle width="90" height="30" as="alternateBounds" />
          </mxGeometry>
        </mxCell>
        <mxCell id="w1yhfIeQpA_DrEaMMZUI-189" value="integer" style="shape=partialRectangle;connectable=0;fillColor=none;top=0;left=0;bottom=0;right=0;align=left;spacingLeft=6;overflow=hidden;rounded=0;fontColor=#46495D;strokeColor=#788AA3;" vertex="1" parent="w1yhfIeQpA_DrEaMMZUI-187">
          <mxGeometry x="90" width="90" height="30" as="geometry">
            <mxRectangle width="90" height="30" as="alternateBounds" />
          </mxGeometry>
        </mxCell>
        <mxCell id="w1yhfIeQpA_DrEaMMZUI-193" value="movies_movie" style="shape=table;startSize=30;container=1;collapsible=1;childLayout=tableLayout;fixedRows=1;rowLines=0;fontStyle=1;align=center;resizeLast=1;rounded=0;fillColor=#f8cecc;strokeColor=#b85450;swimlaneFillColor=default;strokeWidth=2;" vertex="1" parent="1">
          <mxGeometry x="641" y="320" width="180" height="280" as="geometry" />
        </mxCell>
        <mxCell id="w1yhfIeQpA_DrEaMMZUI-194" value="" style="shape=tableRow;horizontal=0;startSize=0;swimlaneHead=0;swimlaneBody=0;fillColor=none;collapsible=0;dropTarget=0;points=[[0,0.5],[1,0.5]];portConstraint=eastwest;top=0;left=0;right=0;bottom=1;rounded=0;fontColor=#46495D;strokeColor=#788AA3;" vertex="1" parent="w1yhfIeQpA_DrEaMMZUI-193">
          <mxGeometry y="30" width="180" height="30" as="geometry" />
        </mxCell>
        <mxCell id="w1yhfIeQpA_DrEaMMZUI-195" value="id" style="shape=partialRectangle;connectable=0;fillColor=none;top=0;left=0;bottom=0;right=0;fontStyle=1;overflow=hidden;rounded=0;fontColor=#46495D;strokeColor=#788AA3;" vertex="1" parent="w1yhfIeQpA_DrEaMMZUI-194">
          <mxGeometry width="90" height="30" as="geometry">
            <mxRectangle width="90" height="30" as="alternateBounds" />
          </mxGeometry>
        </mxCell>
        <mxCell id="w1yhfIeQpA_DrEaMMZUI-196" value="integer" style="shape=partialRectangle;connectable=0;fillColor=none;top=0;left=0;bottom=0;right=0;align=left;spacingLeft=6;fontStyle=5;overflow=hidden;rounded=0;fontColor=#46495D;strokeColor=#788AA3;" vertex="1" parent="w1yhfIeQpA_DrEaMMZUI-194">
          <mxGeometry x="90" width="90" height="30" as="geometry">
            <mxRectangle width="90" height="30" as="alternateBounds" />
          </mxGeometry>
        </mxCell>
        <mxCell id="w1yhfIeQpA_DrEaMMZUI-197" value="" style="shape=tableRow;horizontal=0;startSize=0;swimlaneHead=0;swimlaneBody=0;fillColor=none;collapsible=0;dropTarget=0;points=[[0,0.5],[1,0.5]];portConstraint=eastwest;top=0;left=0;right=0;bottom=0;rounded=0;fontColor=#46495D;strokeColor=#788AA3;" vertex="1" parent="w1yhfIeQpA_DrEaMMZUI-193">
          <mxGeometry y="60" width="180" height="30" as="geometry" />
        </mxCell>
        <mxCell id="w1yhfIeQpA_DrEaMMZUI-198" value="title" style="shape=partialRectangle;connectable=0;fillColor=none;top=0;left=0;bottom=0;right=0;editable=1;overflow=hidden;rounded=0;fontColor=#46495D;strokeColor=#788AA3;" vertex="1" parent="w1yhfIeQpA_DrEaMMZUI-197">
          <mxGeometry width="90" height="30" as="geometry">
            <mxRectangle width="90" height="30" as="alternateBounds" />
          </mxGeometry>
        </mxCell>
        <mxCell id="w1yhfIeQpA_DrEaMMZUI-199" value="varchar(100)" style="shape=partialRectangle;connectable=0;fillColor=none;top=0;left=0;bottom=0;right=0;align=left;spacingLeft=6;overflow=hidden;rounded=0;fontColor=#46495D;strokeColor=#788AA3;" vertex="1" parent="w1yhfIeQpA_DrEaMMZUI-197">
          <mxGeometry x="90" width="90" height="30" as="geometry">
            <mxRectangle width="90" height="30" as="alternateBounds" />
          </mxGeometry>
        </mxCell>
        <mxCell id="w1yhfIeQpA_DrEaMMZUI-200" value="" style="shape=tableRow;horizontal=0;startSize=0;swimlaneHead=0;swimlaneBody=0;fillColor=none;collapsible=0;dropTarget=0;points=[[0,0.5],[1,0.5]];portConstraint=eastwest;top=0;left=0;right=0;bottom=0;rounded=0;fontColor=#46495D;strokeColor=#788AA3;" vertex="1" parent="w1yhfIeQpA_DrEaMMZUI-193">
          <mxGeometry y="90" width="180" height="30" as="geometry" />
        </mxCell>
        <mxCell id="w1yhfIeQpA_DrEaMMZUI-201" value="release_date" style="shape=partialRectangle;connectable=0;fillColor=none;top=0;left=0;bottom=0;right=0;editable=1;overflow=hidden;rounded=0;fontColor=#46495D;strokeColor=#788AA3;" vertex="1" parent="w1yhfIeQpA_DrEaMMZUI-200">
          <mxGeometry width="90" height="30" as="geometry">
            <mxRectangle width="90" height="30" as="alternateBounds" />
          </mxGeometry>
        </mxCell>
        <mxCell id="w1yhfIeQpA_DrEaMMZUI-202" value="date" style="shape=partialRectangle;connectable=0;fillColor=none;top=0;left=0;bottom=0;right=0;align=left;spacingLeft=6;overflow=hidden;rounded=0;fontColor=#46495D;strokeColor=#788AA3;" vertex="1" parent="w1yhfIeQpA_DrEaMMZUI-200">
          <mxGeometry x="90" width="90" height="30" as="geometry">
            <mxRectangle width="90" height="30" as="alternateBounds" />
          </mxGeometry>
        </mxCell>
        <mxCell id="w1yhfIeQpA_DrEaMMZUI-203" value="" style="shape=tableRow;horizontal=0;startSize=0;swimlaneHead=0;swimlaneBody=0;fillColor=none;collapsible=0;dropTarget=0;points=[[0,0.5],[1,0.5]];portConstraint=eastwest;top=0;left=0;right=0;bottom=0;rounded=0;fontColor=#46495D;strokeColor=#788AA3;" vertex="1" parent="w1yhfIeQpA_DrEaMMZUI-193">
          <mxGeometry y="120" width="180" height="30" as="geometry" />
        </mxCell>
        <mxCell id="w1yhfIeQpA_DrEaMMZUI-204" value="popularity" style="shape=partialRectangle;connectable=0;fillColor=none;top=0;left=0;bottom=0;right=0;editable=1;overflow=hidden;rounded=0;fontColor=#46495D;strokeColor=#788AA3;" vertex="1" parent="w1yhfIeQpA_DrEaMMZUI-203">
          <mxGeometry width="90" height="30" as="geometry">
            <mxRectangle width="90" height="30" as="alternateBounds" />
          </mxGeometry>
        </mxCell>
        <mxCell id="w1yhfIeQpA_DrEaMMZUI-205" value="real" style="shape=partialRectangle;connectable=0;fillColor=none;top=0;left=0;bottom=0;right=0;align=left;spacingLeft=6;overflow=hidden;rounded=0;fontColor=#46495D;strokeColor=#788AA3;" vertex="1" parent="w1yhfIeQpA_DrEaMMZUI-203">
          <mxGeometry x="90" width="90" height="30" as="geometry">
            <mxRectangle width="90" height="30" as="alternateBounds" />
          </mxGeometry>
        </mxCell>
        <mxCell id="w1yhfIeQpA_DrEaMMZUI-218" style="shape=tableRow;horizontal=0;startSize=0;swimlaneHead=0;swimlaneBody=0;fillColor=none;collapsible=0;dropTarget=0;points=[[0,0.5],[1,0.5]];portConstraint=eastwest;top=0;left=0;right=0;bottom=0;rounded=0;fontColor=#46495D;strokeColor=#788AA3;" vertex="1" parent="w1yhfIeQpA_DrEaMMZUI-193">
          <mxGeometry y="150" width="180" height="30" as="geometry" />
        </mxCell>
        <mxCell id="w1yhfIeQpA_DrEaMMZUI-219" value="vote_count" style="shape=partialRectangle;connectable=0;fillColor=none;top=0;left=0;bottom=0;right=0;editable=1;overflow=hidden;rounded=0;fontColor=#46495D;strokeColor=#788AA3;" vertex="1" parent="w1yhfIeQpA_DrEaMMZUI-218">
          <mxGeometry width="90" height="30" as="geometry">
            <mxRectangle width="90" height="30" as="alternateBounds" />
          </mxGeometry>
        </mxCell>
        <mxCell id="w1yhfIeQpA_DrEaMMZUI-220" value="integer" style="shape=partialRectangle;connectable=0;fillColor=none;top=0;left=0;bottom=0;right=0;align=left;spacingLeft=6;overflow=hidden;rounded=0;fontColor=#46495D;strokeColor=#788AA3;" vertex="1" parent="w1yhfIeQpA_DrEaMMZUI-218">
          <mxGeometry x="90" width="90" height="30" as="geometry">
            <mxRectangle width="90" height="30" as="alternateBounds" />
          </mxGeometry>
        </mxCell>
        <mxCell id="w1yhfIeQpA_DrEaMMZUI-215" style="shape=tableRow;horizontal=0;startSize=0;swimlaneHead=0;swimlaneBody=0;fillColor=none;collapsible=0;dropTarget=0;points=[[0,0.5],[1,0.5]];portConstraint=eastwest;top=0;left=0;right=0;bottom=0;rounded=0;fontColor=#46495D;strokeColor=#788AA3;" vertex="1" parent="w1yhfIeQpA_DrEaMMZUI-193">
          <mxGeometry y="180" width="180" height="30" as="geometry" />
        </mxCell>
        <mxCell id="w1yhfIeQpA_DrEaMMZUI-216" value="vote_average" style="shape=partialRectangle;connectable=0;fillColor=none;top=0;left=0;bottom=0;right=0;editable=1;overflow=hidden;rounded=0;fontColor=#46495D;strokeColor=#788AA3;" vertex="1" parent="w1yhfIeQpA_DrEaMMZUI-215">
          <mxGeometry width="90" height="30" as="geometry">
            <mxRectangle width="90" height="30" as="alternateBounds" />
          </mxGeometry>
        </mxCell>
        <mxCell id="w1yhfIeQpA_DrEaMMZUI-217" value="real" style="shape=partialRectangle;connectable=0;fillColor=none;top=0;left=0;bottom=0;right=0;align=left;spacingLeft=6;overflow=hidden;rounded=0;fontColor=#46495D;strokeColor=#788AA3;" vertex="1" parent="w1yhfIeQpA_DrEaMMZUI-215">
          <mxGeometry x="90" width="90" height="30" as="geometry">
            <mxRectangle width="90" height="30" as="alternateBounds" />
          </mxGeometry>
        </mxCell>
        <mxCell id="w1yhfIeQpA_DrEaMMZUI-212" style="shape=tableRow;horizontal=0;startSize=0;swimlaneHead=0;swimlaneBody=0;fillColor=none;collapsible=0;dropTarget=0;points=[[0,0.5],[1,0.5]];portConstraint=eastwest;top=0;left=0;right=0;bottom=0;rounded=0;fontColor=#46495D;strokeColor=#788AA3;" vertex="1" parent="w1yhfIeQpA_DrEaMMZUI-193">
          <mxGeometry y="210" width="180" height="30" as="geometry" />
        </mxCell>
        <mxCell id="w1yhfIeQpA_DrEaMMZUI-213" value="overview" style="shape=partialRectangle;connectable=0;fillColor=none;top=0;left=0;bottom=0;right=0;editable=1;overflow=hidden;rounded=0;fontColor=#46495D;strokeColor=#788AA3;" vertex="1" parent="w1yhfIeQpA_DrEaMMZUI-212">
          <mxGeometry width="90" height="30" as="geometry">
            <mxRectangle width="90" height="30" as="alternateBounds" />
          </mxGeometry>
        </mxCell>
        <mxCell id="w1yhfIeQpA_DrEaMMZUI-214" value="text" style="shape=partialRectangle;connectable=0;fillColor=none;top=0;left=0;bottom=0;right=0;align=left;spacingLeft=6;overflow=hidden;rounded=0;fontColor=#46495D;strokeColor=#788AA3;" vertex="1" parent="w1yhfIeQpA_DrEaMMZUI-212">
          <mxGeometry x="90" width="90" height="30" as="geometry">
            <mxRectangle width="90" height="30" as="alternateBounds" />
          </mxGeometry>
        </mxCell>
        <mxCell id="w1yhfIeQpA_DrEaMMZUI-209" style="shape=tableRow;horizontal=0;startSize=0;swimlaneHead=0;swimlaneBody=0;fillColor=none;collapsible=0;dropTarget=0;points=[[0,0.5],[1,0.5]];portConstraint=eastwest;top=0;left=0;right=0;bottom=0;rounded=0;fontColor=#46495D;strokeColor=#788AA3;" vertex="1" parent="w1yhfIeQpA_DrEaMMZUI-193">
          <mxGeometry y="240" width="180" height="30" as="geometry" />
        </mxCell>
        <mxCell id="w1yhfIeQpA_DrEaMMZUI-210" value="poster_path" style="shape=partialRectangle;connectable=0;fillColor=none;top=0;left=0;bottom=0;right=0;editable=1;overflow=hidden;rounded=0;fontColor=#46495D;strokeColor=#788AA3;" vertex="1" parent="w1yhfIeQpA_DrEaMMZUI-209">
          <mxGeometry width="90" height="30" as="geometry">
            <mxRectangle width="90" height="30" as="alternateBounds" />
          </mxGeometry>
        </mxCell>
        <mxCell id="w1yhfIeQpA_DrEaMMZUI-211" value="varchar(200)" style="shape=partialRectangle;connectable=0;fillColor=none;top=0;left=0;bottom=0;right=0;align=left;spacingLeft=6;overflow=hidden;rounded=0;fontColor=#46495D;strokeColor=#788AA3;" vertex="1" parent="w1yhfIeQpA_DrEaMMZUI-209">
          <mxGeometry x="90" width="90" height="30" as="geometry">
            <mxRectangle width="90" height="30" as="alternateBounds" />
          </mxGeometry>
        </mxCell>
        <mxCell id="w1yhfIeQpA_DrEaMMZUI-234" value="movies_movie_genres" style="shape=table;startSize=30;container=1;collapsible=1;childLayout=tableLayout;fixedRows=1;rowLines=0;fontStyle=1;align=center;resizeLast=1;rounded=0;strokeColor=#b85450;fillColor=#f8cecc;gradientColor=none;gradientDirection=east;swimlaneFillColor=default;strokeWidth=2;verticalAlign=middle;" vertex="1" parent="1">
          <mxGeometry x="880" y="430" width="180" height="130" as="geometry" />
        </mxCell>
        <mxCell id="w1yhfIeQpA_DrEaMMZUI-235" value="" style="shape=tableRow;horizontal=0;startSize=0;swimlaneHead=0;swimlaneBody=0;fillColor=none;collapsible=0;dropTarget=0;points=[[0,0.5],[1,0.5]];portConstraint=eastwest;top=0;left=0;right=0;bottom=1;rounded=0;fontColor=#46495D;strokeColor=#788AA3;" vertex="1" parent="w1yhfIeQpA_DrEaMMZUI-234">
          <mxGeometry y="30" width="180" height="30" as="geometry" />
        </mxCell>
        <mxCell id="w1yhfIeQpA_DrEaMMZUI-236" value="id" style="shape=partialRectangle;connectable=0;fillColor=none;top=0;left=0;bottom=0;right=0;fontStyle=1;overflow=hidden;rounded=0;fontColor=#46495D;strokeColor=#788AA3;" vertex="1" parent="w1yhfIeQpA_DrEaMMZUI-235">
          <mxGeometry width="90" height="30" as="geometry">
            <mxRectangle width="90" height="30" as="alternateBounds" />
          </mxGeometry>
        </mxCell>
        <mxCell id="w1yhfIeQpA_DrEaMMZUI-237" value="integer" style="shape=partialRectangle;connectable=0;fillColor=none;top=0;left=0;bottom=0;right=0;align=left;spacingLeft=6;fontStyle=5;overflow=hidden;rounded=0;fontColor=#46495D;strokeColor=#788AA3;" vertex="1" parent="w1yhfIeQpA_DrEaMMZUI-235">
          <mxGeometry x="90" width="90" height="30" as="geometry">
            <mxRectangle width="90" height="30" as="alternateBounds" />
          </mxGeometry>
        </mxCell>
        <mxCell id="w1yhfIeQpA_DrEaMMZUI-238" value="" style="shape=tableRow;horizontal=0;startSize=0;swimlaneHead=0;swimlaneBody=0;fillColor=none;collapsible=0;dropTarget=0;points=[[0,0.5],[1,0.5]];portConstraint=eastwest;top=0;left=0;right=0;bottom=0;rounded=0;fontColor=#46495D;strokeColor=#788AA3;" vertex="1" parent="w1yhfIeQpA_DrEaMMZUI-234">
          <mxGeometry y="60" width="180" height="30" as="geometry" />
        </mxCell>
        <mxCell id="w1yhfIeQpA_DrEaMMZUI-239" value="movie_id" style="shape=partialRectangle;connectable=0;fillColor=none;top=0;left=0;bottom=0;right=0;editable=1;overflow=hidden;rounded=0;fontColor=#46495D;strokeColor=#788AA3;" vertex="1" parent="w1yhfIeQpA_DrEaMMZUI-238">
          <mxGeometry width="90" height="30" as="geometry">
            <mxRectangle width="90" height="30" as="alternateBounds" />
          </mxGeometry>
        </mxCell>
        <mxCell id="w1yhfIeQpA_DrEaMMZUI-240" value="integer" style="shape=partialRectangle;connectable=0;fillColor=none;top=0;left=0;bottom=0;right=0;align=left;spacingLeft=6;overflow=hidden;rounded=0;fontColor=#46495D;strokeColor=#788AA3;" vertex="1" parent="w1yhfIeQpA_DrEaMMZUI-238">
          <mxGeometry x="90" width="90" height="30" as="geometry">
            <mxRectangle width="90" height="30" as="alternateBounds" />
          </mxGeometry>
        </mxCell>
        <mxCell id="w1yhfIeQpA_DrEaMMZUI-241" value="" style="shape=tableRow;horizontal=0;startSize=0;swimlaneHead=0;swimlaneBody=0;fillColor=none;collapsible=0;dropTarget=0;points=[[0,0.5],[1,0.5]];portConstraint=eastwest;top=0;left=0;right=0;bottom=0;rounded=0;fontColor=#46495D;strokeColor=#788AA3;" vertex="1" parent="w1yhfIeQpA_DrEaMMZUI-234">
          <mxGeometry y="90" width="180" height="30" as="geometry" />
        </mxCell>
        <mxCell id="w1yhfIeQpA_DrEaMMZUI-242" value="genre_id" style="shape=partialRectangle;connectable=0;fillColor=none;top=0;left=0;bottom=0;right=0;editable=1;overflow=hidden;rounded=0;fontColor=#46495D;strokeColor=#788AA3;" vertex="1" parent="w1yhfIeQpA_DrEaMMZUI-241">
          <mxGeometry width="90" height="30" as="geometry">
            <mxRectangle width="90" height="30" as="alternateBounds" />
          </mxGeometry>
        </mxCell>
        <mxCell id="w1yhfIeQpA_DrEaMMZUI-243" value="integer" style="shape=partialRectangle;connectable=0;fillColor=none;top=0;left=0;bottom=0;right=0;align=left;spacingLeft=6;overflow=hidden;rounded=0;fontColor=#46495D;strokeColor=#788AA3;" vertex="1" parent="w1yhfIeQpA_DrEaMMZUI-241">
          <mxGeometry x="90" width="90" height="30" as="geometry">
            <mxRectangle width="90" height="30" as="alternateBounds" />
          </mxGeometry>
        </mxCell>
        <mxCell id="w1yhfIeQpA_DrEaMMZUI-247" value="" style="fontSize=12;html=1;endArrow=ERzeroToMany;startArrow=ERmandOne;rounded=0;fontColor=#46495D;strokeColor=#788AA3;fillColor=#B2C9AB;exitX=0.997;exitY=-0.1;exitDx=0;exitDy=0;exitPerimeter=0;entryX=0;entryY=0.5;entryDx=0;entryDy=0;edgeStyle=orthogonalEdgeStyle;" edge="1" parent="1" source="w1yhfIeQpA_DrEaMMZUI-135" target="w1yhfIeQpA_DrEaMMZUI-177">
          <mxGeometry width="100" height="100" relative="1" as="geometry">
            <mxPoint x="310" y="379" as="sourcePoint" />
            <mxPoint x="390" y="380" as="targetPoint" />
          </mxGeometry>
        </mxCell>
        <mxCell id="w1yhfIeQpA_DrEaMMZUI-248" value="" style="fontSize=12;html=1;endArrow=ERzeroToMany;startArrow=ERmandOne;rounded=0;fontColor=#46495D;strokeColor=#788AA3;fillColor=#B2C9AB;entryX=-0.003;entryY=0.128;entryDx=0;entryDy=0;entryPerimeter=0;edgeStyle=orthogonalEdgeStyle;" edge="1" parent="1" source="w1yhfIeQpA_DrEaMMZUI-155" target="w1yhfIeQpA_DrEaMMZUI-180">
          <mxGeometry width="100" height="100" relative="1" as="geometry">
            <mxPoint x="310" y="280" as="sourcePoint" />
            <mxPoint x="540" y="570" as="targetPoint" />
          </mxGeometry>
        </mxCell>
        <mxCell id="w1yhfIeQpA_DrEaMMZUI-249" value="" style="edgeStyle=orthogonalEdgeStyle;fontSize=12;html=1;endArrow=ERzeroToMany;startArrow=ERmandOne;rounded=0;fontColor=#46495D;strokeColor=#788AA3;fillColor=#B2C9AB;exitX=1;exitY=0.5;exitDx=0;exitDy=0;entryX=0;entryY=0.5;entryDx=0;entryDy=0;" edge="1" parent="1" source="w1yhfIeQpA_DrEaMMZUI-194" target="w1yhfIeQpA_DrEaMMZUI-238">
          <mxGeometry width="100" height="100" relative="1" as="geometry">
            <mxPoint x="850" y="240" as="sourcePoint" />
            <mxPoint x="480" y="600" as="targetPoint" />
          </mxGeometry>
        </mxCell>
        <mxCell id="w1yhfIeQpA_DrEaMMZUI-250" value="" style="edgeStyle=orthogonalEdgeStyle;fontSize=12;html=1;endArrow=ERzeroToMany;startArrow=ERmandOne;rounded=0;fontColor=#46495D;strokeColor=#788AA3;fillColor=#B2C9AB;entryX=1;entryY=0.5;entryDx=0;entryDy=0;exitX=1;exitY=0.5;exitDx=0;exitDy=0;" edge="1" parent="1" source="w1yhfIeQpA_DrEaMMZUI-101" target="w1yhfIeQpA_DrEaMMZUI-184">
          <mxGeometry width="100" height="100" relative="1" as="geometry">
            <mxPoint x="590" y="70" as="sourcePoint" />
            <mxPoint x="720" y="545" as="targetPoint" />
            <Array as="points">
              <mxPoint x="590" y="185" />
              <mxPoint x="590" y="735" />
            </Array>
          </mxGeometry>
        </mxCell>
        <mxCell id="w1yhfIeQpA_DrEaMMZUI-251" value="" style="edgeStyle=orthogonalEdgeStyle;fontSize=12;html=1;endArrow=ERzeroToMany;startArrow=none;rounded=0;fontColor=#46495D;strokeColor=#788AA3;fillColor=#B2C9AB;exitX=1;exitY=0.5;exitDx=0;exitDy=0;entryX=0;entryY=0.5;entryDx=0;entryDy=0;" edge="1" parent="1" source="w1yhfIeQpA_DrEaMMZUI-222" target="w1yhfIeQpA_DrEaMMZUI-241">
          <mxGeometry width="100" height="100" relative="1" as="geometry">
            <mxPoint x="410" y="270" as="sourcePoint" />
            <mxPoint x="890" y="300" as="targetPoint" />
          </mxGeometry>
        </mxCell>
        <mxCell id="w1yhfIeQpA_DrEaMMZUI-221" value="movies_genre" style="shape=table;startSize=35;container=1;collapsible=1;childLayout=tableLayout;fixedRows=1;rowLines=0;fontStyle=1;align=center;resizeLast=1;rounded=0;strokeColor=#b85450;fillColor=#f8cecc;swimlaneFillColor=default;strokeWidth=2;" vertex="1" parent="1">
          <mxGeometry x="641" y="660" width="180" height="95" as="geometry" />
        </mxCell>
        <mxCell id="w1yhfIeQpA_DrEaMMZUI-222" value="" style="shape=tableRow;horizontal=0;startSize=0;swimlaneHead=0;swimlaneBody=0;fillColor=none;collapsible=0;dropTarget=0;points=[[0,0.5],[1,0.5]];portConstraint=eastwest;top=0;left=0;right=0;bottom=1;rounded=0;fontColor=#46495D;strokeColor=#788AA3;" vertex="1" parent="w1yhfIeQpA_DrEaMMZUI-221">
          <mxGeometry y="35" width="180" height="30" as="geometry" />
        </mxCell>
        <mxCell id="w1yhfIeQpA_DrEaMMZUI-223" value="id" style="shape=partialRectangle;connectable=0;fillColor=none;top=0;left=0;bottom=0;right=0;fontStyle=1;overflow=hidden;rounded=0;fontColor=#46495D;strokeColor=#788AA3;" vertex="1" parent="w1yhfIeQpA_DrEaMMZUI-222">
          <mxGeometry width="89" height="30" as="geometry">
            <mxRectangle width="89" height="30" as="alternateBounds" />
          </mxGeometry>
        </mxCell>
        <mxCell id="w1yhfIeQpA_DrEaMMZUI-224" value="integer" style="shape=partialRectangle;connectable=0;fillColor=none;top=0;left=0;bottom=0;right=0;align=left;spacingLeft=6;fontStyle=5;overflow=hidden;rounded=0;fontColor=#46495D;strokeColor=#788AA3;" vertex="1" parent="w1yhfIeQpA_DrEaMMZUI-222">
          <mxGeometry x="89" width="91" height="30" as="geometry">
            <mxRectangle width="91" height="30" as="alternateBounds" />
          </mxGeometry>
        </mxCell>
        <mxCell id="w1yhfIeQpA_DrEaMMZUI-225" value="" style="shape=tableRow;horizontal=0;startSize=0;swimlaneHead=0;swimlaneBody=0;fillColor=none;collapsible=0;dropTarget=0;points=[[0,0.5],[1,0.5]];portConstraint=eastwest;top=0;left=0;right=0;bottom=0;rounded=0;fontColor=#46495D;strokeColor=#788AA3;" vertex="1" parent="w1yhfIeQpA_DrEaMMZUI-221">
          <mxGeometry y="65" width="180" height="30" as="geometry" />
        </mxCell>
        <mxCell id="w1yhfIeQpA_DrEaMMZUI-226" value="name" style="shape=partialRectangle;connectable=0;fillColor=none;top=0;left=0;bottom=0;right=0;editable=1;overflow=hidden;rounded=0;fontColor=#46495D;strokeColor=#788AA3;" vertex="1" parent="w1yhfIeQpA_DrEaMMZUI-225">
          <mxGeometry width="89" height="30" as="geometry">
            <mxRectangle width="89" height="30" as="alternateBounds" />
          </mxGeometry>
        </mxCell>
        <mxCell id="w1yhfIeQpA_DrEaMMZUI-227" value="varchar(50)" style="shape=partialRectangle;connectable=0;fillColor=none;top=0;left=0;bottom=0;right=0;align=left;spacingLeft=6;overflow=hidden;rounded=0;fontColor=#46495D;strokeColor=#788AA3;" vertex="1" parent="w1yhfIeQpA_DrEaMMZUI-225">
          <mxGeometry x="89" width="91" height="30" as="geometry">
            <mxRectangle width="91" height="30" as="alternateBounds" />
          </mxGeometry>
        </mxCell>
        <mxCell id="w1yhfIeQpA_DrEaMMZUI-256" value="" style="fontSize=12;html=1;endArrow=ERoneToMany;startArrow=ERzeroToMany;rounded=0;fontColor=#46495D;strokeColor=#788AA3;fillColor=#B2C9AB;exitX=0.546;exitY=0.987;exitDx=0;exitDy=0;exitPerimeter=0;entryX=0.546;entryY=-0.001;entryDx=0;entryDy=0;entryPerimeter=0;" edge="1" parent="1" source="w1yhfIeQpA_DrEaMMZUI-88" target="w1yhfIeQpA_DrEaMMZUI-131">
          <mxGeometry width="100" height="100" relative="1" as="geometry">
            <mxPoint x="160" y="330" as="sourcePoint" />
            <mxPoint x="190" y="370" as="targetPoint" />
          </mxGeometry>
        </mxCell>
        <mxCell id="w1yhfIeQpA_DrEaMMZUI-257" value="" style="edgeStyle=entityRelationEdgeStyle;fontSize=12;html=1;endArrow=ERzeroToMany;startArrow=ERmandOne;rounded=0;fontColor=#46495D;strokeColor=#788AA3;fillColor=#B2C9AB;entryX=0;entryY=0.5;entryDx=0;entryDy=0;exitX=1;exitY=0.5;exitDx=0;exitDy=0;" edge="1" parent="1" source="w1yhfIeQpA_DrEaMMZUI-132" target="w1yhfIeQpA_DrEaMMZUI-119">
          <mxGeometry width="100" height="100" relative="1" as="geometry">
            <mxPoint x="310" y="320" as="sourcePoint" />
            <mxPoint x="397" y="635" as="targetPoint" />
          </mxGeometry>
        </mxCell>
        <mxCell id="w1yhfIeQpA_DrEaMMZUI-258" value="" style="fontSize=12;html=1;endArrow=ERoneToMany;startArrow=ERmandOne;fontColor=#46495D;strokeColor=#788AA3;fillColor=#B2C9AB;rounded=0;" edge="1" parent="1">
          <mxGeometry width="100" height="100" relative="1" as="geometry">
            <mxPoint x="469.5" y="470" as="sourcePoint" />
            <mxPoint x="469.5" y="410" as="targetPoint" />
          </mxGeometry>
        </mxCell>
      </root>
    </mxGraphModel>
  </diagram>
</mxfile>
